<?xml version="1.0" encoding="UTF-8"?>
<svg id="Layer_2" xmlns="http://www.w3.org/2000/svg" viewBox="0 0 366.49 311.29">
  <defs>
    <style>
      .cls-1 {
        fill: #fff;
      }
    </style>
  </defs>
  <g id="Layer_1-2" data-name="Layer_1">
    <g>
      <g>
        <path class="cls-1" d="M57.33,300v-26.26h7.72l.32,3.31c.84-1.3,1.88-2.28,3.12-2.94,1.24-.66,2.62-1,4.12-1,2.17,0,3.96.45,5.38,1.34s2.46,2.25,3.12,4.07c.8-1.75,1.91-3.09,3.31-4.02,1.4-.93,2.97-1.39,4.73-1.39,3.15,0,5.52.96,7.12,2.89,1.59,1.93,2.37,4.92,2.34,8.98v15.02h-8.19v-13.44c0-1.4-.15-2.51-.45-3.33-.3-.82-.73-1.43-1.29-1.81-.56-.38-1.22-.59-1.99-.63-1.51-.03-2.65.39-3.44,1.29-.79.89-1.18,2.25-1.18,4.07v13.86h-8.19v-13.44c0-1.4-.15-2.51-.45-3.33-.3-.82-.73-1.43-1.29-1.81-.56-.38-1.22-.59-1.99-.63-1.51-.03-2.65.39-3.44,1.29-.79.89-1.18,2.25-1.18,4.07v13.86h-8.19Z"/>
        <path class="cls-1" d="M114.14,300.63c-2.73,0-5.15-.59-7.25-1.76-2.1-1.17-3.75-2.79-4.94-4.86-1.19-2.07-1.78-4.45-1.78-7.14s.6-5.13,1.81-7.19c1.21-2.07,2.86-3.68,4.96-4.83,2.1-1.16,4.53-1.73,7.3-1.73,2.49,0,4.73.59,6.72,1.78,2,1.19,3.58,2.96,4.75,5.3,1.17,2.35,1.76,5.27,1.76,8.77h-19.74l.89-1c0,1.19.24,2.24.74,3.15.49.91,1.17,1.6,2.05,2.07.87.47,1.86.71,2.94.71,1.29,0,2.39-.29,3.28-.87.89-.58,1.51-1.3,1.86-2.18l7.25,2.47c-.7,1.65-1.69,3.01-2.97,4.09-1.28,1.09-2.74,1.89-4.38,2.42-1.65.53-3.4.79-5.25.79ZM108.84,284.56l-.84-1.05h11.76l-.74,1.05c0-1.29-.26-2.33-.79-3.1-.53-.77-1.17-1.32-1.94-1.65-.77-.33-1.54-.5-2.31-.5s-1.55.17-2.34.5c-.79.33-1.45.88-1.99,1.65-.54.77-.81,1.8-.81,3.1Z"/>
        <path class="cls-1" d="M138.77,300.63c-1.72,0-3.32-.25-4.81-.76-1.49-.51-2.77-1.22-3.86-2.15-1.09-.93-1.89-2.06-2.42-3.39l6.72-2.84c.46.91,1.09,1.58,1.89,2.02.81.44,1.63.66,2.47.66s1.56-.15,2.05-.45.74-.71.74-1.23c0-.56-.25-1-.76-1.31-.51-.32-1.23-.6-2.18-.84l-2.26-.58c-2.45-.63-4.33-1.67-5.64-3.12-1.31-1.45-1.97-3.14-1.97-5.07,0-2.69.93-4.78,2.78-6.25,1.86-1.47,4.43-2.21,7.72-2.21,1.86,0,3.49.24,4.91.74,1.42.49,2.61,1.18,3.57,2.07.96.89,1.65,1.93,2.07,3.12l-6.51,2.68c-.25-.7-.74-1.23-1.5-1.6-.75-.37-1.58-.55-2.49-.55-.77,0-1.37.17-1.78.5-.42.33-.63.78-.63,1.34,0,.42.25.78.76,1.08.51.3,1.25.57,2.23.81l2.78.68c1.65.42,3.03,1.06,4.15,1.92,1.12.86,1.96,1.86,2.52,2.99.56,1.14.84,2.35.84,3.65,0,1.65-.48,3.07-1.44,4.28-.96,1.21-2.3,2.15-4.02,2.81-1.72.66-3.69,1-5.93,1Z"/>
        <path class="cls-1" d="M152.11,300v-36.76h8.19v36.76h-8.19ZM169.02,286.55c0-1.4-.16-2.51-.47-3.33-.32-.82-.77-1.43-1.37-1.81-.6-.38-1.3-.59-2.1-.63-1.58-.03-2.77.39-3.57,1.29-.81.89-1.21,2.25-1.21,4.07h-2.47c0-2.77.42-5.12,1.26-7.06.84-1.94,1.99-3.42,3.44-4.44,1.45-1.02,3.12-1.52,5.01-1.52,2.14,0,3.92.43,5.36,1.29,1.43.86,2.51,2.16,3.23,3.91.72,1.75,1.08,3.99,1.08,6.72v1.52h-8.19ZM169.02,300v-13.44h8.19v13.44h-8.19Z"/>
        <path class="cls-1" d="M180.04,311.29c-2.28,0-4.29-.58-6.04-1.73l3.36-6.77c.42.24.84.45,1.26.63.42.17.8.26,1.15.26,1.33,0,2-.91,2-2.73v-27.2h8.19v27.78c0,3.08-.86,5.48-2.57,7.19-1.72,1.71-4.17,2.57-7.35,2.57ZM185.87,270.59c-1.26,0-2.36-.47-3.31-1.42-.94-.94-1.42-2.05-1.42-3.31s.47-2.42,1.42-3.36c.94-.95,2.05-1.42,3.31-1.42s2.42.47,3.36,1.42c.95.94,1.42,2.07,1.42,3.36s-.47,2.36-1.42,3.31c-.94.94-2.07,1.42-3.36,1.42Z"/>
        <path class="cls-1" d="M203.78,300.63c-1.72,0-3.32-.25-4.81-.76-1.49-.51-2.77-1.22-3.86-2.15-1.09-.93-1.89-2.06-2.42-3.39l6.72-2.84c.46.91,1.09,1.58,1.89,2.02.81.44,1.63.66,2.47.66s1.56-.15,2.05-.45.74-.71.74-1.23c0-.56-.25-1-.76-1.31-.51-.32-1.23-.6-2.18-.84l-2.26-.58c-2.45-.63-4.33-1.67-5.64-3.12-1.31-1.45-1.97-3.14-1.97-5.07,0-2.69.93-4.78,2.78-6.25s4.43-2.21,7.72-2.21c1.86,0,3.49.24,4.91.74,1.42.49,2.61,1.18,3.57,2.07.96.89,1.65,1.93,2.07,3.12l-6.51,2.68c-.25-.7-.74-1.23-1.5-1.6-.75-.37-1.58-.55-2.49-.55-.77,0-1.37.17-1.78.5-.42.33-.63.78-.63,1.34,0,.42.25.78.76,1.08.51.3,1.25.57,2.23.81l2.78.68c1.65.42,3.03,1.06,4.15,1.92,1.12.86,1.96,1.86,2.52,2.99.56,1.14.84,2.35.84,3.65,0,1.65-.48,3.07-1.44,4.28-.96,1.21-2.3,2.15-4.02,2.81-1.72.66-3.69,1-5.93,1Z"/>
        <path class="cls-1" d="M221.37,300.78c-1.33,0-2.47-.47-3.41-1.42-.94-.94-1.42-2.08-1.42-3.41s.47-2.42,1.42-3.36c.94-.95,2.08-1.42,3.41-1.42s2.42.47,3.36,1.42c.95.94,1.42,2.07,1.42,3.36s-.47,2.47-1.42,3.41c-.94.94-2.06,1.42-3.36,1.42Z"/>
        <path class="cls-1" d="M239.48,300.63c-2.45,0-4.56-.55-6.33-1.65-1.77-1.1-3.13-2.69-4.1-4.75-.96-2.06-1.44-4.52-1.44-7.35s.48-5.33,1.44-7.38c.96-2.05,2.33-3.62,4.1-4.73,1.77-1.1,3.88-1.65,6.33-1.65,2.17,0,4,.55,5.49,1.65,1.49,1.1,2.6,2.68,3.33,4.73.74,2.05,1.1,4.51,1.1,7.38s-.37,5.29-1.1,7.35c-.74,2.07-1.85,3.65-3.33,4.75-1.49,1.1-3.32,1.65-5.49,1.65ZM241.64,293.07c1.02,0,1.93-.26,2.73-.79.81-.52,1.44-1.25,1.89-2.18.45-.93.68-2,.68-3.23s-.23-2.3-.68-3.23c-.46-.93-1.09-1.65-1.89-2.18-.81-.53-1.73-.79-2.78-.79s-1.98.26-2.78.79c-.81.53-1.44,1.25-1.92,2.18-.47.93-.73,2-.76,3.23.03,1.22.29,2.3.76,3.23.47.93,1.12,1.65,1.94,2.18.82.53,1.76.79,2.81.79ZM247.31,300l-.37-4.88v-31.87h8.19v36.76h-7.82Z"/>
        <path class="cls-1" d="M271.04,300.63c-2.73,0-5.15-.59-7.25-1.76-2.1-1.17-3.75-2.79-4.94-4.86-1.19-2.07-1.78-4.45-1.78-7.14s.6-5.13,1.81-7.19c1.21-2.07,2.86-3.68,4.96-4.83s4.53-1.73,7.3-1.73c2.49,0,4.73.59,6.72,1.78s3.58,2.96,4.75,5.3c1.17,2.35,1.76,5.27,1.76,8.77h-19.74l.89-1c0,1.19.24,2.24.74,3.15.49.91,1.17,1.6,2.05,2.07.87.47,1.86.71,2.94.71,1.29,0,2.39-.29,3.28-.87.89-.58,1.51-1.3,1.86-2.18l7.25,2.47c-.7,1.65-1.69,3.01-2.97,4.09-1.28,1.09-2.74,1.89-4.38,2.42-1.65.53-3.4.79-5.25.79ZM265.74,284.56l-.84-1.05h11.76l-.74,1.05c0-1.29-.26-2.33-.79-3.1-.53-.77-1.17-1.32-1.94-1.65-.77-.33-1.54-.5-2.31-.5s-1.55.17-2.34.5c-.79.33-1.45.88-1.99,1.65-.54.77-.81,1.8-.81,3.1Z"/>
        <path class="cls-1" d="M292.73,300l-10.66-26.26h8.45l9.61,26.26h-7.4ZM293.46,300l9.61-26.26h8.45l-10.66,26.26h-7.4Z"/>
      </g>
      <path class="cls-1" d="M365.22,159.72l-58.91-78.55L247.39,2.62c-1.18-1.7-3.14-2.62-5.24-2.62s-4.06.92-5.24,2.62l-48.44,64.54c-2.62,3.53-7.85,3.53-10.47,0L129.57,2.62c-1.18-1.7-3.14-2.62-5.24-2.62s-4.06.92-5.24,2.62l-58.91,78.55L1.28,159.72c-1.7,2.36-1.7,5.5,0,7.85l58.91,78.55c1.18,1.7,3.14,2.62,5.24,2.62s4.06-.92,5.24-2.62l48.44-64.54c2.62-3.53,7.85-3.53,10.47,0l48.44,64.54c1.18,1.7,3.14,2.62,5.24,2.62s4.06-.92,5.24-2.62l48.44-64.54c2.62-3.53,7.85-3.53,10.47,0l48.44,64.54c1.18,1.7,3.14,2.62,5.24,2.62s4.06-.92,5.24-2.62l58.91-78.55c1.7-2.36,1.7-5.5,0-7.85ZM247.39,24.48l42.55,56.69c1.7,2.36,1.7,5.5,0,7.85l-42.55,56.69c-2.62,3.53-7.85,3.53-10.47,0l-42.55-56.69c-1.7-2.36-1.7-5.5,0-7.85l42.55-56.69c2.62-3.53,7.85-3.53,10.47,0ZM129.57,24.48l42.55,56.69c1.7,2.36,1.7,5.5,0,7.85l-42.55,56.69c-2.62,3.53-7.85,3.53-10.47,0l-42.55-56.69c-1.7-2.36-1.7-5.5,0-7.85l42.55-56.69c2.62-3.53,7.85-3.53,10.47,0ZM60.19,224.26l-42.55-56.69c-1.7-2.36-1.7-5.5,0-7.85l42.55-56.69c2.62-3.53,7.85-3.53,10.47,0l42.55,56.69c1.7,2.36,1.7,5.5,0,7.85l-42.55,56.69c-2.62,3.53-7.85,3.53-10.47,0ZM178.01,224.26l-42.55-56.69c-1.7-2.36-1.7-5.5,0-7.85l42.55-56.69c2.62-3.53,7.85-3.53,10.47,0l42.55,56.69c1.7,2.36,1.7,5.5,0,7.85l-42.55,56.69c-2.62,3.53-7.85,3.53-10.47,0ZM295.83,224.26l-42.55-56.69c-1.7-2.36-1.7-5.5,0-7.85l42.55-56.69c2.62-3.53,7.85-3.53,10.47,0l42.55,56.69c1.7,2.36,1.7,5.5,0,7.85l-42.55,56.69c-2.62,3.53-7.85,3.53-10.47,0Z"/>
    </g>
  </g>
</svg>