<svg enable-background="new 0 0 300 200" viewBox="0 0 300 200" xmlns="http://www.w3.org/2000/svg"><path d="m289 127-45-60-45-60c-.9-1.3-2.4-2-4-2s-3.1.7-4 2l-37 49.3c-2 2.7-6 2.7-8 0l-37-49.3c-.9-1.3-2.4-2-4-2s-3.1.7-4 2l-45 60-45 60c-1.3 1.8-1.3 4.2 0 6l45 60c.9 1.3 2.4 2 4 2s3.1-.7 4-2l37-49.3c2-2.7 6-2.7 8 0l37 49.3c.9 1.3 2.4 2 4 2s3.1-.7 4-2l37-49.3c2-2.7 6-2.7 8 0l37 49.3c.9 1.3 2.4 2 4 2s3.1-.7 4-2l45-60c1.3-1.8 1.3-4.2 0-6zm-90-103.3 32.5 43.3c1.3 1.8 1.3 4.2 0 6l-32.5 43.3c-2 2.7-6 2.7-8 0l-32.5-43.3c-1.3-1.8-1.3-4.2 0-6l32.5-43.3c2-2.7 6-2.7 8 0zm-90 0 32.5 43.3c1.3 1.8 1.3 4.2 0 6l-32.5 43.3c-2 2.7-6 2.7-8 0l-32.5-43.3c-1.3-1.8-1.3-4.2 0-6l32.5-43.3c2-2.7 6-2.7 8 0zm-53 152.6-32.5-43.3c-1.3-1.8-1.3-4.2 0-6l32.5-43.3c2-2.7 6-2.7 8 0l32.5 43.3c1.3 1.8 1.3 4.2 0 6l-32.5 43.3c-2 2.7-6 2.7-8 0zm90 0-32.5-43.3c-1.3-1.8-1.3-4.2 0-6l32.5-43.3c2-2.7 6-2.7 8 0l32.5 43.3c1.3 1.8 1.3 4.2 0 6l-32.5 43.3c-2 2.7-6 2.7-8 0zm90 0-32.5-43.3c-1.3-1.8-1.3-4.2 0-6l32.5-43.3c2-2.7 6-2.7 8 0l32.5 43.3c1.3 1.8 1.3 4.2 0 6l-32.5 43.3c-2 2.7-6 2.7-8 0z"/></svg>