<?xml version="1.0" standalone="no"?>
<!DOCTYPE svg PUBLIC "-//W3C//DTD SVG 20010904//EN"
 "http://www.w3.org/TR/2001/REC-SVG-20010904/DTD/svg10.dtd">
<svg version="1.0" xmlns="http://www.w3.org/2000/svg"
 width="66.000000pt" height="56.000000pt" viewBox="0 0 66.000000 56.000000"
 preserveAspectRatio="xMidYMid meet">

<g transform="translate(0.000000,56.000000) scale(0.100000,-0.100000)"
fill="#000000" stroke="none">
<path d="M196 314 c-9 -8 -16 -19 -16 -24 0 -11 29 -40 40 -40 11 0 40 29 40
40 0 5 -7 16 -16 24 -8 9 -19 16 -24 16 -5 0 -16 -7 -24 -16z"/>
<path d="M317 319 c-21 -12 -22 -42 -3 -58 20 -16 56 3 56 29 0 25 -30 41 -53
29z"/>
<path d="M427 319 c-39 -22 -4 -79 35 -58 10 5 18 18 18 29 0 25 -30 41 -53
29z"/>
</g>
</svg>
