<?xml version="1.0" encoding="UTF-8"?>
<svg width="187px" height="187px" viewBox="0 0 187 187" version="1.1" xmlns="http://www.w3.org/2000/svg" xmlns:xlink="http://www.w3.org/1999/xlink">
    <title>Slice</title>
    <g id="Page-1" stroke="none" stroke-width="1" fill="none" fill-rule="evenodd">
        <path d="M165.744,142.947 C167.387,164.214 167.387,174.183 167.387,185.065 L118.558,185.065 C118.558,182.694 118.6,180.526 118.642,178.327 C118.774,171.492 118.912,164.365 117.813,149.971 C116.361,128.899 107.356,124.216 90.798,124.216 L76.128,124.216 L14,124.216 L14,85.876 L93.122,85.876 C114.037,85.876 124.494,79.464 124.494,62.489 C124.494,47.563 114.037,38.517 93.122,38.517 L14,38.517 L14,1 L101.836,1 C149.186,1 172.716,23.536 172.716,59.535 C172.716,86.461 156.158,104.021 133.79,106.948 C152.672,110.753 163.71,121.582 165.744,142.947 Z" id="Path" fill="#121212"></path>
        <path d="M14,185.065 L14,156.483 L65.63,156.483 C74.254,156.483 76.126,162.929 76.126,166.772 L76.126,185.065 L14,185.065 Z" id="Path" fill="#121212" fill-rule="nonzero"></path>
    </g>
</svg>