<svg xmlns="http://www.w3.org/2000/svg" viewBox="0 0 78.19 128.51"><defs><style>.cls-1{fill:#fc6204;}</style></defs><g id="Layer_2" data-name="Layer 2"><g id="Layer_1-2" data-name="Layer 1"><path class="cls-1" d="M31,128.51c-.1-8.82-.1-17.63-.35-26.44a11.89,11.89,0,0,1,4-9.67C40.62,86.79,46.33,81,52,75.11c2.27-2.36,4.88-4.87,3.22-8.7s-5.16-4.83-9-4.83c-3.16,0-6.32,0-9.48,0-1.28,0-2.83.48-3.57-1-.83-1.71.47-2.81,1.53-3.84q12-11.67,24-23.3c1.67-1.62,3.34-3.24,5.1-4.76,4.53-3.93,10.06-2.83,12.83,2.49,1.51,2.91,1.65,6.05,1.64,9.22,0,9.65-.42,19.31,0,28.94.41,10.85-4.2,19.18-11.64,26.44Q49.73,112.08,33,128.51Z"/><path class="cls-1" d="M45.53,0c2,5.64.89,29.24-1.38,33.93a27.69,27.69,0,0,1-8.46,10c-4.19,3.18-7.45,7.56-11.15,11.38-2.25,2.32-3.47,5-2.17,8.12a7.74,7.74,0,0,0,7.09,4.73c3.81.24,7.65.07,11.47.16,1.06,0,2.46-.48,3,1A2.56,2.56,0,0,1,43,72c-9.88,9.87-19.64,19.85-29.7,29.53C9.56,105.05,3.17,102.94,1,97.92a17.07,17.07,0,0,1-1-6.84C.05,80.44.1,69.8,0,59.16a31.55,31.55,0,0,1,9.53-23.3Q26.81,18.28,44,.64C44.34.64,45.2,0,45.53,0Z"/></g></g></svg>