<svg width="44" height="44" viewBox="0 0 44 44" fill="none" xmlns="http://www.w3.org/2000/svg">
<path d="M20.8425 22.8428L22.8425 23.3691V26.948L20.2109 26.8428L20.8425 22.8428Z" fill="#54B9B4"/>
<path d="M18.8418 25.4744L20.8418 22.8428L20.2102 26.8428L18.8418 25.4744Z" fill="#4DAAA6"/>
<path d="M18.8418 25.4744L20.8418 22.8428L18.8418 24.2112V25.4744Z" fill="#4AA683"/>
<path d="M18.8421 21.2632L20.8421 22.8421L18.8421 24.2105H18.6316L18 23.3684L17.5789 22.9474L16.7368 22.7368L15.4737 22.5263L14.4211 22.3158L12.1053 22.1053L9.36842 21.8947L8.31579 21.6842L4.52632 18.9474L4.31579 18.5263L4.73684 18.3158L7.57895 20.4211H8.52632L8.31579 19.7895L4.73684 15.7895L4.63158 15.3684L3.47368 12.9474L2 10.1053H2.63158L4.94737 14.5263L4.73684 13.4737L4.52632 12.2105L4.31579 10.9474L4.10526 9.47368V7.36842L4.31579 5.68421L4.52632 4H4.94737V6.73684L4.73684 8.21053L4.94737 9.15789L5.15789 10.1053L5.36842 11.0526L5.57895 12L5.78947 12.9474L6 14.1053L6.21053 14.5263L7.89474 17.0526H8.31579V14.7368L7.26316 12.8421L7.05263 10.9474V8.63158H7.26316L7.47368 9.47368V11.3684L7.68421 11.7895L8.73684 14.1053L9.15789 14.5263L9.57895 14.2105V11.1579H10V18.1053L14 20.4211H15.6842V20L13.7895 17.8947V16.3158L14.2105 16.8421L16.8421 20.4211L16.9474 20.7368L18.8421 21.2632Z" fill="#66DC9B"/>
<path d="M18.6328 27.7894L18.8433 25.4736L20.2118 26.8421L18.6328 27.7894Z" fill="#52B3B2"/>
<path d="M16.5273 24.5264L18.8431 25.4737L18.6326 27.7895L16.5273 24.5264Z" fill="#44979C"/>
<path d="M16.4225 27.7896H18.633L16.5278 24.5265L15.7909 24.2107L15.2646 24.0002L14.4225 23.7896L13.4751 23.5791L13.1593 24.0002L12.9488 24.6317L12.7383 25.2633V25.6844L14.4225 27.3686L15.2646 27.5791L16.4225 27.7896Z" fill="#50AB89"/>
<path d="M11.8965 23.1582L13.4754 23.5793L12.8439 25.0529L12.7386 25.6845L11.8965 23.1582Z" fill="#235779"/>
<path d="M18.6328 27.7901L20.2118 26.8428L19.6854 28.6322L18.6328 27.7901Z" fill="#5AC48B"/>
<path d="M22.8425 26.948L20.2109 26.8428L21.1583 30.1059V31.1586L20.9478 31.7901V32.8428H22.8425V26.948Z" fill="#5FD09C"/>
<path d="M19.6836 28.6322L20.2099 26.8428L21.1573 30.0007V31.1586L20.9468 32.6322L20.7362 30.948L19.6836 29.6849V28.6322Z" fill="#66DDAF"/>
<path d="M18.2109 28.6318L19.6846 29.6845L20.7373 30.9476L20.9478 32.6318L19.5794 33.0529L18.2109 28.6318Z" fill="#59C299"/>
<path d="M19.6846 28.6318H18.2109L19.6846 29.6845V28.6318Z" fill="#040D04"/>
<path d="M18.632 27.7891L18.2109 28.6312H19.6846L18.632 27.7891Z" fill="#1B453F"/>
<path d="M19.5781 33.0529L20.9465 32.6318V35.5792L20.736 36.2108L19.5781 33.0529Z" fill="#357894"/>
<path d="M20.9473 32.8418H22.842V33.4734H21.9999L20.9473 34.2102V32.8418Z" fill="#65DDB7"/>
<path d="M21.9999 33.4736H22.842V35.7894H21.9999L20.9473 34.2105L21.9999 33.4736Z" fill="#051512"/>
<path d="M20.9488 35.5794V34.2109L22.0014 35.7899H22.8435V36.4215H21.3699L20.7383 36.2109L20.9488 35.5794Z" fill="#5AC482"/>
<path d="M22.8413 40.0001V36.4212H21.3676L20.736 36.2106L19.5781 33.0527V35.3685V37.6843L20.9465 39.7896L21.9992 40.0001H22.8413Z" fill="#419177"/>
<path d="M18.2108 28.6318L19.5793 33.0529V37.6845L20.9477 39.7897H19.7898L18.8424 39.4739L17.5793 39.0529L17.1582 36.6318V34.0003L18.2108 28.6318Z" fill="url(#paint0_linear_7017_247640)"/>
<path d="M23.9993 22.8428L21.9993 23.3691V26.948L24.6309 26.8428L23.9993 22.8428Z" fill="#54B9B4"/>
<path d="M26 25.4744L24 22.8428L24.6316 26.8428L26 25.4744Z" fill="#4DAAA6"/>
<path d="M26 25.4744L24 22.8428L26 24.2112V25.4744Z" fill="#4AA683"/>
<path d="M25.9997 21.2632L23.9997 22.8421L25.9997 24.2105H26.2102L26.8418 23.3684L27.2629 22.9474L28.105 22.7368L29.3681 22.5263L30.4207 22.3158L32.7365 22.1053L35.4734 21.8947L36.526 21.6842L40.3155 18.9474L40.526 18.5263L40.105 18.3158L37.2628 20.4211H36.3155L36.526 19.7895L40.105 15.7895L40.2102 15.3684L41.3681 12.9474L42.8418 10.1053H42.2102L39.8944 14.5263L40.105 13.4737L40.3155 12.2105L40.526 10.9474L40.7365 9.47368V7.36842L40.526 5.68421L40.3155 4H39.8944V6.73684L40.105 8.21053L39.8944 9.15789L39.6839 10.1053L39.4734 11.0526L39.2628 12L39.0523 12.9474L38.8418 14.1053L38.6313 14.5263L36.9471 17.0526H36.526V14.7368L37.5786 12.8421L37.7892 10.9474V8.63158H37.5786L37.3681 9.47368V11.3684L37.1576 11.7895L36.105 14.1053L35.6839 14.5263L35.2628 14.2105V11.1579H34.8418V18.1053L30.8418 20.4211H29.1576V20L31.0523 17.8947V16.3158L30.6313 16.8421L27.9997 20.4211L27.8944 20.7368L25.9997 21.2632Z" fill="#66DC9B"/>
<path d="M26.209 27.7894L25.9985 25.4736L24.63 26.8421L26.209 27.7894Z" fill="#52B3B2"/>
<path d="M28.3145 24.5264L25.9987 25.4737L26.2092 27.7895L28.3145 24.5264Z" fill="#44979C"/>
<path d="M28.4193 27.7896H26.2088L28.314 24.5265L29.0509 24.2107L29.5772 24.0002L30.4193 23.7896L31.3667 23.5791L31.6825 24.0002L31.893 24.6317L32.1035 25.2633V25.6844L30.4193 27.3686L29.5772 27.5791L28.4193 27.7896Z" fill="#50AB89"/>
<path d="M32.9453 23.1582L31.3664 23.5793L31.9979 25.0529L32.1032 25.6845L32.9453 23.1582Z" fill="#235779"/>
<path d="M26.209 27.7901L24.63 26.8428L25.1564 28.6322L26.209 27.7901Z" fill="#5AC48B"/>
<path d="M21.9993 26.948L24.6309 26.8428L23.6835 30.1059V31.1586L23.894 31.7901V32.8428H21.9993V26.948Z" fill="#5FD09C"/>
<path d="M25.1582 28.6322L24.6319 26.8428L23.6845 30.0007V31.1586L23.895 32.6322L24.1056 30.948L25.1582 29.6849V28.6322Z" fill="#66DDAF"/>
<path d="M26.6309 28.6318L25.1572 29.6845L24.1045 30.9476L23.894 32.6318L25.2624 33.0529L26.6309 28.6318Z" fill="#59C299"/>
<path d="M25.1572 28.6318H26.6309L25.1572 29.6845V28.6318Z" fill="#040D04"/>
<path d="M26.2098 27.7891L26.6309 28.6312H25.1572L26.2098 27.7891Z" fill="#1B453F"/>
<path d="M25.2637 33.0529L23.8953 32.6318V35.5792L24.1058 36.2108L25.2637 33.0529Z" fill="#357894"/>
<path d="M23.8945 32.8418H21.9998V33.4734H22.8419L23.8945 34.2102V32.8418Z" fill="#65DDB7"/>
<path d="M22.8419 33.4736H21.9998V35.7894H22.8419L23.8945 34.2105L22.8419 33.4736Z" fill="#051512"/>
<path d="M23.893 35.5794V34.2109L22.8404 35.7899H21.9983V36.4215H23.4719L24.1035 36.2109L23.893 35.5794Z" fill="#5AC482"/>
<path d="M22.0005 40.0001V36.4212H23.4742L24.1058 36.2106L25.2637 33.0527V35.3685V37.6843L23.8953 39.7896L22.8426 40.0001H22.0005Z" fill="#419177"/>
<path d="M26.631 28.6318L25.2625 33.0529V37.6845L23.8941 39.7897H25.052L25.9994 39.4739L27.2625 39.0529L27.6836 36.6318V34.0003L26.631 28.6318Z" fill="#66DDAF"/>
<defs>
<linearGradient id="paint0_linear_7017_247640" x1="17.895" y1="29.895" x2="19.0529" y2="39.7897" gradientUnits="userSpaceOnUse">
<stop stop-color="#204D50"/>
<stop offset="1" stop-color="#52D8A8"/>
</linearGradient>
</defs>
</svg>
