<svg width="44" height="44" viewBox="0 0 44 44" fill="none" xmlns="http://www.w3.org/2000/svg">
<g clip-path="url(#clip0_247_218151)">
<path d="M14.2488 30.9702C14.2235 30.9737 14.1998 30.9895 14.1791 31.0222C14.0965 31.1538 14.3017 32.3908 14.8909 33.0602C15.4801 33.7319 16.7833 33.4962 17.6897 33.6383C18.596 33.7803 18.9457 34.4642 19.5556 35.344C20.4948 36.8705 21.8207 36.9075 21.8207 36.9075C21.8207 36.9075 23.1466 36.8705 24.0858 35.344C24.6957 34.4642 25.0457 33.7803 25.9519 33.6383C26.8582 33.4962 28.1619 33.7319 28.7511 33.0602C29.3403 32.3908 29.5453 31.1538 29.4627 31.0222C29.3802 30.8907 29.2499 31.032 29.1521 31.1436C28.7295 31.6267 28.5152 31.9499 27.55 32.2117C26.5849 32.4736 25.6295 32.2246 25.6295 32.2246C25.2124 32.593 24.8708 32.8497 24.0801 32.8765L21.8207 32.8837L19.5616 32.8765C18.7707 32.8497 18.4294 32.593 18.0123 32.2246C18.0123 32.2246 17.0569 32.4736 16.0918 32.2117C15.1268 31.9499 14.9124 31.6267 14.4897 31.1436C14.4165 31.0599 14.325 30.9597 14.2488 30.9702V30.9702Z" fill="url(#paint0_linear_247_218151)"/>
<path d="M5.02897 7.03013C3.25769 6.78036 -5.44562 15.9777 12.0006 22.1306C13.804 22.7675 17.8685 23.8766 19.2249 26.2067C18.2719 26.4204 17.6485 26.5534 16.5673 26.1672C14.99 25.6037 15.3723 23.9326 15.405 23.92L7.06757 20.7465C7.06757 20.7465 8.50441 22.4399 10.5206 23.92C12.5369 25.4003 16.1388 26.9215 17.596 27.7807C19.0533 28.6376 19.461 30.0743 19.461 30.0743C19.461 30.0743 19.0232 29.9911 18.0546 29.9643C17.0859 29.9375 16.1783 29.306 15.9668 28.734C15.7554 28.1621 15.8896 27.3478 15.8816 27.3319L13.8129 26.4082C13.8129 26.4082 13.8131 27.8451 13.3938 28.3171C12.9745 28.7868 10.9958 27.4731 10.4805 27.1984C10.3267 27.1165 10.1718 27.1396 10.1995 27.3247C10.225 27.4923 11.1967 28.9264 12.0765 29.7101C12.954 30.4914 14.0839 30.2179 14.3511 30.2076C14.7862 30.1908 15.7019 30.21 16.5995 30.7504C17.635 31.374 17.7697 31.7456 18.1365 32.0841C18.3983 32.3255 18.8243 32.7128 19.5538 32.7128L21.8207 32.7322L24.0876 32.7128C24.8171 32.7128 25.2435 32.3255 25.5052 32.0841C25.8718 31.7456 26.0068 31.374 27.0423 30.7504C27.9398 30.21 28.8555 30.1908 29.2907 30.2076C29.5579 30.2179 30.6878 30.4914 31.5652 29.7101C32.445 28.9264 33.4164 27.4923 33.4417 27.3247C33.4696 27.1396 33.3151 27.1165 33.1612 27.1984C32.646 27.4731 30.6673 28.7868 30.248 28.3171C29.8287 27.8451 29.8287 26.4082 29.8287 26.4082L27.7601 27.3319C27.7522 27.3478 27.8864 28.1621 27.6749 28.734C27.4634 29.306 26.5553 29.9375 25.5868 29.9643C24.6182 29.9911 24.1808 30.0743 24.1808 30.0743C24.1808 30.0743 24.5884 28.6376 26.0456 27.7807C27.503 26.9215 31.1047 25.4003 33.1211 23.92C35.1374 22.4399 36.5738 20.7465 36.5738 20.7465L28.2367 23.92C28.2695 23.9326 28.6518 25.6037 27.0744 26.1672C25.9933 26.5534 25.3699 26.4204 24.4169 26.2067C25.7733 23.8766 29.8378 22.7675 31.641 22.1306C49.6501 15.7793 39.7953 6.18378 38.464 7.0843C38.0722 7.35015 38.3495 7.75539 38.3495 7.75539C38.3495 7.75539 39.7013 10.0101 38.6612 12.0676C37.621 14.1252 33.3391 15.3092 31.8361 15.1465C30.3399 14.9862 29.7056 14.5131 29.701 14.5016C29.1741 13.8326 28.5704 12.6207 27.567 13.3125C26.3869 14.1284 25.0419 13.8701 24.0131 12.7566C22.9821 11.6407 21.8207 11.2068 21.8207 11.2068C21.8207 11.2068 20.6593 11.6407 19.6281 12.7566C18.5995 13.8701 17.2543 14.1284 16.0744 13.3125C15.0709 12.6207 14.4679 13.8326 13.9408 14.5016C13.9362 14.5131 13.3019 14.986 11.8057 15.1465C10.3027 15.3092 6.02082 14.1252 4.98053 12.0676C3.94043 10.0101 5.29223 7.75557 5.29223 7.75557C5.29223 7.75557 5.56917 7.35015 5.17742 7.0843C5.13275 7.05509 5.08195 7.03656 5.02897 7.03013V7.03013ZM14.0902 16.9412C14.0902 16.9412 15.2704 16.9203 17.2867 17.5206C19.3007 18.1213 21.8205 20.5265 21.8205 20.5265C21.8205 20.5265 24.3409 18.1213 26.3549 17.5208C28.3712 16.9205 29.5512 16.9412 29.5512 16.9412C29.5512 16.9412 26.8703 17.5208 24.641 18.9138C22.4116 20.3069 21.8205 22.0232 21.8205 22.0232C21.8205 22.0232 21.2295 20.3069 19.0001 18.9138C16.7707 17.5208 14.09 16.9412 14.09 16.9412H14.0902Z" fill="url(#paint1_linear_247_218151)"/>
<path d="M4.70193 7.06763C2.4265 7.73003 -4.53881 16.2975 12.0008 22.1306C13.804 22.7675 17.8687 23.8767 19.2249 26.2067C18.272 26.4206 17.6487 26.5533 16.5675 26.1671C14.9902 25.6036 15.3725 23.9326 15.405 23.92L7.06776 20.7464C7.06776 20.7464 8.50442 22.4399 10.5207 23.92C12.5371 25.4003 16.139 26.9214 17.5962 27.7807C19.0533 28.6376 19.4612 30.0743 19.4612 30.0743C19.4612 30.0743 19.0234 29.9911 18.0546 29.9643C17.0861 29.9375 16.1785 29.3059 15.967 28.7339C15.7554 28.1619 15.8898 27.3476 15.8818 27.3315L13.8131 26.4082C13.8131 26.4082 13.8131 27.8449 13.394 28.317C12.9745 28.7868 10.996 27.4731 10.4807 27.1984C10.3269 27.1165 10.172 27.1396 10.1997 27.3246C10.225 27.4923 11.1967 28.9264 12.0767 29.7101C12.9542 30.4913 14.0839 30.2179 14.3511 30.2076C14.7863 30.1906 15.7017 30.2098 16.5991 30.7503C17.6348 31.3739 17.7699 31.7455 18.1367 32.084C18.3983 32.3255 18.8245 32.7128 19.554 32.7128L21.8043 32.7322H21.8209L24.071 32.7128C24.8005 32.7128 25.2266 32.3255 25.4882 32.084C25.855 31.7455 25.9902 31.3739 27.0258 30.7503C27.9232 30.2098 28.8387 30.1906 29.2739 30.2076C29.541 30.2179 30.6712 30.4913 31.5488 29.7101C32.4286 28.9264 33.3999 27.4923 33.4252 27.3246C33.4532 27.1396 33.2982 27.1165 33.1444 27.1984C32.6292 27.4731 30.6505 28.7868 30.2312 28.317C29.8119 27.8449 29.8119 26.4082 29.8119 26.4082L27.7433 27.3315C27.7352 27.3476 27.8696 28.1619 27.6581 28.7339C27.4466 29.3059 26.5389 29.9375 25.5703 29.9643C24.6018 29.9911 24.1638 30.0743 24.1638 30.0743C24.1638 30.0743 24.572 28.6376 26.0292 27.7807C27.4865 26.9214 31.0879 25.4003 33.1043 23.92C35.1205 22.4401 36.5572 20.7464 36.5572 20.7464L28.2199 23.92C28.2527 23.9326 28.6348 25.6036 27.0576 26.1671C25.9763 26.5533 25.3529 26.4206 24.4001 26.2067C25.7563 23.8767 29.8209 22.7675 31.6242 22.1306C48.1638 16.2975 41.1988 7.73003 38.9234 7.06763C38.9234 7.06763 41.2308 10.0694 40.8783 13.0071C40.5364 15.9447 34.7251 18.904 29.8539 20.1007C28.4802 20.4384 22.04 23.2127 21.815 26.3444C21.59 23.2127 15.1447 20.4384 13.7711 20.1005C8.90005 18.904 3.08909 15.9447 2.74708 13.0071C2.39452 10.0694 4.70193 7.06763 4.70193 7.06763Z" fill="url(#paint2_linear_247_218151)"/>
<path d="M19.5606 32.8765C19.4427 34.8681 21.8207 36.0742 21.8207 36.0742C21.8207 36.0742 24.1991 34.8681 24.081 32.8765L21.8207 32.8837L19.5606 32.8765Z" fill="url(#paint3_linear_247_218151)"/>
<path fill-rule="evenodd" clip-rule="evenodd" d="M18.7718 29.3862C18.6596 29.117 18.051 28.0534 16.6352 27.639C16.4799 27.5935 16.2292 27.5643 16.1668 27.9222C16.1118 28.2368 16.2167 28.6487 16.4095 28.8983C16.7622 29.3546 17.1643 29.5602 17.6583 29.6544C17.8693 29.6946 18.1782 29.7596 18.4396 29.7415C18.5395 29.736 18.6371 29.7095 18.726 29.6635C18.8452 29.6029 18.8258 29.5156 18.7718 29.3862V29.3862ZM18.4854 25.7599C18.1096 25.329 17.586 24.6146 16.2091 24.0979C16.0575 24.0408 15.8031 24.0232 15.7406 24.3811C15.6857 24.6958 15.7905 25.1077 15.9835 25.3572C16.3361 25.8135 16.7375 26.0235 17.2322 26.1134C17.454 26.1535 17.6315 26.2008 18.0135 26.2004C18.1201 26.2003 18.2285 26.1812 18.3274 26.1635C18.7058 26.0956 18.6128 25.9059 18.4854 25.7599ZM24.8701 29.3862C24.9823 29.117 25.5909 28.0534 27.0067 27.639C27.1621 27.5935 27.4126 27.5643 27.4751 27.9222C27.53 28.2368 27.4254 28.6487 27.2324 28.8983C26.8798 29.3546 26.4775 29.5602 25.9837 29.6544C25.7726 29.6946 25.4637 29.7596 25.2025 29.7415C25.1025 29.7361 25.0048 29.7095 24.9159 29.6635C24.7967 29.6029 24.8163 29.5156 24.8701 29.3862V29.3862ZM25.1562 25.7599C25.5323 25.329 26.0558 24.6146 27.4326 24.0979C27.5844 24.0408 27.8388 24.0232 27.9013 24.3811C27.9562 24.6958 27.8513 25.1077 27.6583 25.3572C27.3058 25.8135 26.9044 26.0235 26.4097 26.1134C26.1878 26.1535 26.0102 26.2008 25.6284 26.2004C25.5217 26.2003 25.4134 26.1812 25.3143 26.1635C24.9361 26.0956 25.0291 25.9059 25.1562 25.7599Z" fill="#AAC0F1"/>
<path d="M4.66406 11.1543C4.66406 11.1543 4.49693 15.7665 11.318 16.3212C12.154 16.3923 13.0618 16.2951 13.8638 15.4665C15.0741 14.2156 14.961 13.8947 15.7698 14.2062C16.5809 14.5179 17.6442 14.9002 18.8701 13.8119C20.0957 12.7259 20.7599 12.4749 21.8207 12.4749C22.8815 12.4749 23.5462 12.7259 24.7719 13.812C25.9978 14.9002 27.061 14.5179 27.8722 14.2062C28.6809 13.8947 28.5679 14.2156 29.7783 15.4665C30.5802 16.2951 31.4878 16.3923 32.324 16.3212C39.1449 15.7665 38.9776 11.1543 38.9776 11.1543C38.914 11.4718 38.8077 11.7793 38.6616 12.0683C37.6215 14.1258 33.3437 14.7381 31.8405 14.5774C30.3445 14.4175 30.3595 13.8514 29.8838 13.0559C29.3865 12.2243 28.571 12.2722 27.5674 12.9642C26.3875 13.7799 25.0377 13.4364 24.0089 12.3227C22.9779 11.207 21.8207 11.2068 21.8207 11.2068C21.8207 11.2068 20.664 11.207 19.6329 12.3229C18.6043 13.4364 17.2545 13.7797 16.0745 12.9642C15.0708 12.2722 14.2553 12.2243 13.758 13.0559C13.2823 13.8514 13.2971 14.4175 11.8011 14.5774C10.2979 14.7383 6.02048 14.1258 4.9802 12.0683C4.83402 11.7793 4.72768 11.4718 4.66406 11.1543V11.1543Z" fill="url(#paint4_linear_247_218151)"/>
</g>
<defs>
<linearGradient id="paint0_linear_247_218151" x1="13.9009" y1="34.0234" x2="29.7779" y2="34.0234" gradientUnits="userSpaceOnUse">
<stop stop-color="#6686CF"/>
<stop offset="0.497" stop-color="#6686CF"/>
<stop offset="0.499" stop-color="#85A5EB"/>
<stop offset="1" stop-color="#85A5EB"/>
</linearGradient>
<linearGradient id="paint1_linear_247_218151" x1="38.6453" y1="16.1013" x2="4.9687" y2="16.1013" gradientUnits="userSpaceOnUse">
<stop stop-color="#3558A8"/>
<stop offset="0.499" stop-color="#5075C8"/>
<stop offset="0.5" stop-color="#6686CF"/>
<stop offset="1" stop-color="#3B64BE"/>
</linearGradient>
<linearGradient id="paint2_linear_247_218151" x1="35.3672" y1="23.6172" x2="8.87066" y2="23.6172" gradientUnits="userSpaceOnUse">
<stop stop-color="#5075C8"/>
<stop offset="0.512" stop-color="#85A5EB"/>
<stop offset="1" stop-color="#6686CF"/>
</linearGradient>
<linearGradient id="paint3_linear_247_218151" x1="19.2144" y1="33.7542" x2="24.4947" y2="33.7816" gradientUnits="userSpaceOnUse">
<stop stop-color="#7997DB"/>
<stop offset="0.494" stop-color="#85A5EB"/>
<stop offset="1" stop-color="#85A5EB"/>
</linearGradient>
<linearGradient id="paint4_linear_247_218151" x1="5.7062" y1="11.2068" x2="37.7986" y2="11.2068" gradientUnits="userSpaceOnUse">
<stop stop-color="#2E4C90"/>
<stop offset="0.502" stop-color="#3558A8"/>
<stop offset="1" stop-color="#26407A"/>
</linearGradient>
<clipPath id="clip0_247_218151">
<rect width="41.2269" height="29.9496" fill="white" transform="translate(1.29407 7.02515)"/>
</clipPath>
</defs>
</svg>
