<?xml version="1.0" standalone="no"?>
<!DOCTYPE svg PUBLIC "-//W3C//DTD SVG 20010904//EN"
 "http://www.w3.org/TR/2001/REC-SVG-20010904/DTD/svg10.dtd">
<svg version="1.0" xmlns="http://www.w3.org/2000/svg"
 width="512.000000pt" height="512.000000pt" viewBox="0 0 512.000000 512.000000"
 preserveAspectRatio="xMidYMid meet">
<metadata>
Created by potrace 1.14, written by Peter Selinger 2001-2017
</metadata>
<g transform="translate(0.000000,512.000000) scale(0.100000,-0.100000)"
fill="#000000" stroke="none">
<path d="M1662 4233 c-22 -27 -400 -529 -841 -1117 -719 -961 -801 -1074 -801
-1106 0 -33 46 -98 424 -602 233 -311 431 -568 441 -572 39 -14 81 -6 107 22
14 15 174 225 355 467 181 242 336 446 345 452 21 18 59 22 86 10 12 -6 177
-216 365 -466 188 -251 350 -464 359 -473 23 -23 86 -23 114 0 11 9 175 223
363 475 351 468 359 477 416 468 11 -2 26 -8 34 -14 8 -7 163 -210 344 -452
181 -242 341 -452 355 -467 26 -28 68 -36 107 -21 10 3 208 261 442 572 411
549 424 567 421 606 -3 35 -95 163 -817 1125 -447 597 -825 1097 -839 1113
-26 27 -68 35 -107 21 -10 -4 -174 -217 -366 -473 -372 -496 -379 -504 -439
-479 -21 10 -125 141 -379 479 -192 256 -356 469 -366 473 -9 3 -32 6 -50 6
-28 0 -41 -8 -73 -47z m107 -264 c26 -9 89 -87 333 -413 166 -220 306 -413
311 -427 6 -14 7 -36 4 -50 -9 -33 -590 -809 -627 -835 -31 -23 -71 -24 -97
-2 -31 25 -615 811 -623 838 -5 17 -3 37 6 56 7 16 147 207 311 424 244 324
321 416 349 420 1 0 15 -5 33 -11z m1660 -12 c30 -25 613 -811 621 -837 5 -17
3 -37 -6 -56 -24 -55 -608 -819 -635 -831 -59 -28 -68 -19 -391 410 -166 221
-306 414 -311 428 -6 14 -7 36 -4 50 9 33 601 820 633 841 28 17 68 15 93 -5z
m-2450 -1091 c15 -12 600 -789 617 -819 6 -10 8 -31 6 -47 -3 -18 -115 -177
-306 -432 -166 -222 -310 -409 -319 -416 -17 -15 -78 -19 -97 -7 -19 12 -613
808 -623 836 -6 14 -7 37 -4 50 3 14 145 209 314 434 223 296 315 411 333 416
28 8 58 2 79 -15z m1627 6 c7 -4 151 -192 321 -417 266 -355 307 -415 307
-445 0 -30 -40 -89 -307 -445 -328 -437 -338 -447 -397 -423 -44 19 -641 817
-645 864 -3 29 28 74 306 446 171 227 320 418 332 424 21 12 59 10 83 -4z
m1618 8 c27 -10 621 -792 640 -842 7 -20 7 -36 0 -55 -11 -30 -604 -826 -624
-838 -19 -12 -80 -8 -97 7 -31 25 -615 811 -623 837 -4 14 -4 36 1 48 9 24
597 811 620 829 8 7 23 14 34 17 11 2 21 5 22 6 1 0 13 -3 27 -9z"/>
</g>
</svg>
